<svg width="789" height="1242" viewBox="0 0 789 1242" fill="none" xmlns="http://www.w3.org/2000/svg">
    <path d="M29.4882 1067.74C-242.526 1122.29 -255.982 905.901 -228.708 790.89L-307.35 769.244C-254.219 538.833 -139.206 68.6442 -104.199 31.1779C-60.4412 -15.6548 264.894 73.6518 282.619 410.071C300.343 746.491 638.362 417.672 625.842 789.211C614.716 1119.38 369.506 999.562 29.4882 1067.74Z" fill="url(#paint0_linear)"/>
    <path d="M-229.008 794.781C-239.555 784.469 -244.828 772.07 -244.828 757.586C-244.828 743.101 -239.555 730.726 -229.008 720.461C-218.414 710.195 -205.453 705.062 -190.125 705.062C-174.75 705.062 -161.789 710.195 -151.242 720.461C-140.648 730.726 -135.352 743.101 -135.352 757.586C-135.352 763.633 -136.312 769.351 -138.234 774.742C-140.156 780.133 -142.477 784.492 -145.195 787.82C-147.867 791.101 -150.562 793.984 -153.281 796.469C-156 798.953 -158.32 800.734 -160.242 801.812L-163.125 803.359C-162.938 803.641 -162.656 804.039 -162.281 804.555C-161.906 805.023 -160.992 805.844 -159.539 807.016C-158.086 808.141 -156.492 809.148 -154.758 810.039C-152.977 810.976 -150.562 811.82 -147.516 812.57C-144.422 813.367 -141.094 813.766 -137.531 813.766H-134.648V831.062H-138.938C-144.703 831.062 -150.141 830.336 -155.25 828.883C-160.312 827.43 -164.438 825.648 -167.625 823.539C-170.766 821.43 -173.555 819.32 -175.992 817.211C-178.383 815.101 -180.094 813.32 -181.125 811.867L-182.602 809.758C-184.711 810.039 -187.195 810.18 -190.055 810.18C-205.43 810.18 -218.414 805.047 -229.008 794.781ZM-213.047 734.101C-219.328 740.476 -222.469 748.328 -222.469 757.656C-222.469 766.937 -219.328 774.766 -213.047 781.141C-206.766 787.516 -199.125 790.703 -190.125 790.703C-181.078 790.703 -173.414 787.516 -167.133 781.141C-160.852 774.766 -157.711 766.937 -157.711 757.656C-157.711 748.328 -160.852 740.476 -167.133 734.101C-173.414 727.68 -181.078 724.469 -190.125 724.469C-199.125 724.469 -206.766 727.68 -213.047 734.101ZM-68.3466 808V800.828C-68.9091 801.484 -69.7059 802.305 -70.7372 803.289C-71.7684 804.226 -74.0419 805.492 -77.5575 807.086C-81.0263 808.633 -84.6825 809.406 -88.5263 809.406C-96.5888 809.406 -103.175 806.711 -108.284 801.32C-113.347 795.883 -115.878 788.664 -115.878 779.664V737.406H-96.4716V777.766C-96.4716 781.703 -95.1825 784.961 -92.6044 787.539C-89.9794 790.117 -86.6981 791.406 -82.7606 791.406C-78.3544 791.406 -74.8622 789.976 -72.2841 787.117C-69.6591 784.258 -68.3466 780.18 -68.3466 774.883V737.406H-48.9403V808H-68.3466ZM12.2287 808V800.828C11.6662 801.484 10.8694 802.305 9.83812 803.289C8.85374 804.226 6.67406 805.492 3.29906 807.086C-0.075943 808.633 -3.59157 809.406 -7.24782 809.406C-14.2791 809.406 -19.9978 807.461 -24.4041 803.57C-28.8103 799.633 -31.0134 794.875 -31.0134 789.297C-31.0134 783.531 -29.1619 778.726 -25.4588 774.883C-21.7556 771.039 -16.6463 768.531 -10.1306 767.359L12.2287 763.351C12.2287 760.398 11.1506 757.984 8.99437 756.109C6.83812 754.234 3.83812 753.297 -0.00563049 753.297C-3.19313 753.297 -6.09938 753.906 -8.72438 755.125C-11.3494 756.297 -13.2009 757.516 -14.2791 758.781L-15.8963 760.469L-26.6541 749.711C-26.3728 749.336 -25.9978 748.844 -25.5291 748.234C-25.0134 747.578 -23.9119 746.476 -22.2244 744.93C-20.49 743.383 -18.615 742.023 -16.5994 740.851C-14.5838 739.633 -11.9353 738.531 -8.65407 737.547C-5.37282 736.516 -2.02126 736 1.40062 736C10.3069 736 17.5725 738.672 23.1975 744.016C28.8225 749.312 31.635 755.992 31.635 764.055V808H12.2287ZM-2.18532 793.586C2.22093 793.586 5.71312 792.203 8.29124 789.437C10.9162 786.625 12.2287 782.734 12.2287 777.766V775.586L-3.59157 778.469C-8.88844 779.312 -11.5369 781.961 -11.5369 786.414C-11.5369 791.195 -8.41969 793.586 -2.18532 793.586ZM72.6947 737.406V746.055C73.2572 745.305 74.0541 744.391 75.0853 743.312C76.1166 742.187 78.3666 740.687 81.8353 738.812C85.351 736.937 89.0306 736 92.8744 736C100.937 736 107.499 738.789 112.562 744.367C117.671 749.945 120.226 757.469 120.226 766.937V808H100.82V769.117C100.82 764.805 99.5306 761.336 96.9525 758.711C94.4213 756.039 91.14 754.703 87.1088 754.703C82.7025 754.703 79.1869 756.156 76.5619 759.062C73.9838 761.922 72.6947 766 72.6947 771.297V808H53.2885V737.406H72.6947ZM150.457 729.531V716.594H167.754V738.883H182.098V756.18H167.754V784.234C167.754 786.437 168.551 788.312 170.145 789.859C171.786 791.406 173.848 792.18 176.332 792.18C177.598 792.18 178.817 792.062 179.989 791.828C181.207 791.547 182.122 791.266 182.731 790.984L183.575 790.703V807.297C179.731 808.75 175.395 809.453 170.567 809.406C155.707 809.406 148.278 801.25 148.278 784.937V756.18H136.043V738.883H142.512C144.715 738.883 146.59 738.016 148.137 736.281C149.684 734.547 150.457 732.297 150.457 729.531ZM250.58 808V800.828C250.017 801.484 249.22 802.305 248.189 803.289C247.158 804.226 244.884 805.492 241.369 807.086C237.9 808.633 234.244 809.406 230.4 809.406C222.337 809.406 215.752 806.711 210.642 801.32C205.58 795.883 203.048 788.664 203.048 779.664V737.406H222.455V777.766C222.455 781.703 223.744 784.961 226.322 787.539C228.947 790.117 232.228 791.406 236.166 791.406C240.572 791.406 244.064 789.976 246.642 787.117C249.267 784.258 250.58 780.18 250.58 774.883V737.406H269.986V808H250.58ZM380.093 808V769.117C380.093 764.617 379.014 761.101 376.858 758.57C374.702 755.992 371.936 754.703 368.561 754.703C364.811 754.703 361.718 756.18 359.28 759.133C356.843 762.039 355.624 766.094 355.624 771.297V808H336.218V769.117C336.218 764.617 335.116 761.101 332.913 758.57C330.757 755.992 328.014 754.703 324.686 754.703C320.936 754.703 317.819 756.18 315.335 759.133C312.897 762.039 311.678 766.094 311.678 771.297V808H292.272V737.406H311.678V746.055C312.147 745.305 312.874 744.391 313.858 743.312C314.843 742.187 316.928 740.687 320.116 738.812C323.35 736.937 326.796 736 330.452 736C333.218 736 335.819 736.445 338.257 737.336C340.694 738.18 342.639 739.187 344.093 740.359C345.546 741.484 346.788 742.656 347.819 743.875C348.897 745.047 349.624 746.078 349.999 746.969L350.561 748.234C350.749 747.953 351.053 747.531 351.475 746.969C351.944 746.359 352.905 745.375 354.358 744.016C355.858 742.609 357.452 741.367 359.139 740.289C360.827 739.164 363.03 738.18 365.749 737.336C368.514 736.445 371.374 736 374.327 736C382.108 736 388.249 738.625 392.749 743.875C397.296 749.078 399.569 756.766 399.569 766.937V808H380.093ZM457.852 707.172H532.032V726.648H479.509V748.937H520.501V768.414H479.509V808H457.852V707.172ZM569.436 707.172V808H549.959V707.172H569.436ZM611.972 737.406V808H592.495V737.406H611.972ZM610.284 709.422C612.347 711.391 613.378 714.016 613.378 717.297C613.378 720.531 612.347 723.133 610.284 725.101C608.222 727.07 605.409 728.055 601.847 728.055C598.566 728.055 595.941 727.07 593.972 725.101C592.05 723.133 591.089 720.531 591.089 717.297C591.089 714.016 592.073 711.391 594.042 709.422C596.011 707.453 598.612 706.469 601.847 706.469C605.409 706.469 608.222 707.453 610.284 709.422ZM674.617 809.406C670.586 809.406 666.813 808.586 663.297 806.945C659.828 805.258 657.367 803.594 655.914 801.953L653.735 799.351V838.234H634.328V737.406H653.735V746.055C653.922 745.773 654.203 745.422 654.578 745C655 744.578 655.844 743.805 657.11 742.68C658.422 741.508 659.828 740.476 661.328 739.586C662.828 738.648 664.774 737.828 667.164 737.125C669.555 736.375 672.039 736 674.617 736C683.758 736 691.68 739.562 698.383 746.687C705.133 753.766 708.508 762.437 708.508 772.703C708.508 782.969 705.133 791.664 698.383 798.789C691.68 805.867 683.758 809.406 674.617 809.406ZM683.266 758.781C679.938 755.125 675.86 753.297 671.032 753.297C666.25 753.297 662.172 755.125 658.797 758.781C655.422 762.391 653.735 767.031 653.735 772.703C653.735 778.375 655.422 783.039 658.797 786.695C662.172 790.351 666.25 792.18 671.032 792.18C675.86 792.18 679.938 790.351 683.266 786.695C686.641 783.039 688.328 778.375 688.328 772.703C688.328 767.031 686.641 762.391 683.266 758.781ZM774.74 746.828L764.685 758.289C764.404 757.914 763.935 757.398 763.279 756.742C762.669 756.086 761.357 755.242 759.341 754.211C757.326 753.133 755.263 752.594 753.154 752.594C750.482 752.594 748.372 753.18 746.826 754.351C745.279 755.476 744.505 756.789 744.505 758.289C744.505 760.117 745.607 761.641 747.81 762.859C750.013 764.078 752.685 765.18 755.826 766.164C759.013 767.101 762.224 768.25 765.458 769.609C768.693 770.922 771.412 773.078 773.615 776.078C775.818 779.031 776.919 782.711 776.919 787.117C776.919 793.445 774.412 798.742 769.396 803.008C764.427 807.273 757.583 809.406 748.865 809.406C745.115 809.406 741.552 808.961 738.177 808.07C734.802 807.18 732.06 806.101 729.951 804.836C727.841 803.57 725.99 802.328 724.396 801.109C722.849 799.844 721.724 798.789 721.021 797.945L720.037 796.469L730.865 785.711C731.24 786.273 731.826 787 732.622 787.891C733.466 788.734 735.201 789.906 737.826 791.406C740.451 792.859 743.169 793.586 745.982 793.586C749.076 793.586 751.396 793 752.943 791.828C754.537 790.609 755.333 789.039 755.333 787.117C755.333 785.195 754.232 783.601 752.029 782.336C749.826 781.023 747.107 779.898 743.872 778.961C740.638 777.976 737.427 776.805 734.24 775.445C731.099 774.086 728.427 771.976 726.224 769.117C724.021 766.258 722.919 762.648 722.919 758.289C722.919 752.617 725.544 747.484 730.794 742.891C736.091 738.297 742.583 736 750.271 736C755.146 736 759.622 736.914 763.701 738.742C767.826 740.57 770.685 742.351 772.279 744.086L774.74 746.828Z" fill="url(#paint1_linear)"/>
    <defs>
        <linearGradient id="paint0_linear" x1="576.121" y1="1258.22" x2="-175.222" y2="615.262" gradientUnits="userSpaceOnUse">
            <stop stop-color="#005BBE" stop-opacity="0.29"/>
            <stop offset="1" stop-color="white" stop-opacity="0"/>
        </linearGradient>
        <linearGradient id="paint1_linear" x1="650.327" y1="765.052" x2="-67" y2="764" gradientUnits="userSpaceOnUse">
            <stop stop-color="#2A356B"/>
            <stop offset="1" stop-color="#2A356B" stop-opacity="0"/>
        </linearGradient>
    </defs>
</svg>
