<svg width="629" height="1127" viewBox="0 0 629 1127" fill="none" xmlns="http://www.w3.org/2000/svg">
    <path d="M-144.777 968.691C-391.558 1018.17 -403.765 821.863 -379.021 717.522L-450.368 697.884C-402.166 488.847 -297.822 62.2762 -266.063 28.2856C-226.364 -14.2026 68.791 66.8193 84.8712 372.03C100.951 677.241 407.613 378.926 396.255 715.998C386.16 1015.54 163.698 906.835 -144.777 968.691Z" fill="url(#paint0_linear)"/>
    <path d="M-377.008 733.781C-387.555 723.469 -392.828 711.07 -392.828 696.586C-392.828 682.102 -387.555 669.727 -377.008 659.461C-366.414 649.195 -353.453 644.062 -338.125 644.062C-322.75 644.062 -309.789 649.195 -299.242 659.461C-288.648 669.727 -283.352 682.102 -283.352 696.586C-283.352 702.633 -284.312 708.352 -286.234 713.742C-288.156 719.133 -290.477 723.492 -293.195 726.82C-295.867 730.102 -298.562 732.984 -301.281 735.469C-304 737.953 -306.32 739.734 -308.242 740.812L-311.125 742.359C-310.938 742.641 -310.656 743.039 -310.281 743.555C-309.906 744.023 -308.992 744.844 -307.539 746.016C-306.086 747.141 -304.492 748.148 -302.758 749.039C-300.977 749.977 -298.562 750.82 -295.516 751.57C-292.422 752.367 -289.094 752.766 -285.531 752.766H-282.648V770.062H-286.938C-292.703 770.062 -298.141 769.336 -303.25 767.883C-308.312 766.43 -312.438 764.648 -315.625 762.539C-318.766 760.43 -321.555 758.32 -323.992 756.211C-326.383 754.102 -328.094 752.32 -329.125 750.867L-330.602 748.758C-332.711 749.039 -335.195 749.18 -338.055 749.18C-353.43 749.18 -366.414 744.047 -377.008 733.781ZM-361.047 673.102C-367.328 679.477 -370.469 687.328 -370.469 696.656C-370.469 705.938 -367.328 713.766 -361.047 720.141C-354.766 726.516 -347.125 729.703 -338.125 729.703C-329.078 729.703 -321.414 726.516 -315.133 720.141C-308.852 713.766 -305.711 705.938 -305.711 696.656C-305.711 687.328 -308.852 679.477 -315.133 673.102C-321.414 666.68 -329.078 663.469 -338.125 663.469C-347.125 663.469 -354.766 666.68 -361.047 673.102ZM-216.347 747V739.828C-216.909 740.484 -217.706 741.305 -218.737 742.289C-219.768 743.227 -222.042 744.492 -225.558 746.086C-229.026 747.633 -232.683 748.406 -236.526 748.406C-244.589 748.406 -251.175 745.711 -256.284 740.32C-261.347 734.883 -263.878 727.664 -263.878 718.664V676.406H-244.472V716.766C-244.472 720.703 -243.183 723.961 -240.604 726.539C-237.979 729.117 -234.698 730.406 -230.761 730.406C-226.354 730.406 -222.862 728.977 -220.284 726.117C-217.659 723.258 -216.347 719.18 -216.347 713.883V676.406H-196.94V747H-216.347ZM-135.771 747V739.828C-136.334 740.484 -137.131 741.305 -138.162 742.289C-139.146 743.227 -141.326 744.492 -144.701 746.086C-148.076 747.633 -151.592 748.406 -155.248 748.406C-162.279 748.406 -167.998 746.461 -172.404 742.57C-176.81 738.633 -179.013 733.875 -179.013 728.297C-179.013 722.531 -177.162 717.727 -173.459 713.883C-169.756 710.039 -164.646 707.531 -158.131 706.359L-135.771 702.352C-135.771 699.398 -136.849 696.984 -139.006 695.109C-141.162 693.234 -144.162 692.297 -148.006 692.297C-151.193 692.297 -154.099 692.906 -156.724 694.125C-159.349 695.297 -161.201 696.516 -162.279 697.781L-163.896 699.469L-174.654 688.711C-174.373 688.336 -173.998 687.844 -173.529 687.234C-173.013 686.578 -171.912 685.477 -170.224 683.93C-168.49 682.383 -166.615 681.023 -164.599 679.852C-162.584 678.633 -159.935 677.531 -156.654 676.547C-153.373 675.516 -150.021 675 -146.599 675C-137.693 675 -130.428 677.672 -124.803 683.016C-119.178 688.312 -116.365 694.992 -116.365 703.055V747H-135.771ZM-150.185 732.586C-145.779 732.586 -142.287 731.203 -139.709 728.438C-137.084 725.625 -135.771 721.734 -135.771 716.766V714.586L-151.592 717.469C-156.888 718.312 -159.537 720.961 -159.537 725.414C-159.537 730.195 -156.42 732.586 -150.185 732.586ZM-75.3053 676.406V685.055C-74.7428 684.305 -73.9459 683.391 -72.9147 682.312C-71.8834 681.188 -69.6334 679.688 -66.1647 677.812C-62.649 675.938 -58.9694 675 -55.1256 675C-47.0631 675 -40.5006 677.789 -35.4381 683.367C-30.3287 688.945 -27.774 696.469 -27.774 705.938V747H-47.1803V708.117C-47.1803 703.805 -48.4694 700.336 -51.0475 697.711C-53.5787 695.039 -56.86 693.703 -60.8912 693.703C-65.2975 693.703 -68.8131 695.156 -71.4381 698.062C-74.0162 700.922 -75.3053 705 -75.3053 710.297V747H-94.7115V676.406H-75.3053ZM2.45749 668.531V655.594H19.7544V677.883H34.0981V695.18H19.7544V723.234C19.7544 725.438 20.5512 727.312 22.145 728.859C23.7856 730.406 25.8481 731.18 28.3325 731.18C29.5981 731.18 30.8169 731.062 31.9887 730.828C33.2075 730.547 34.1216 730.266 34.7309 729.984L35.5747 729.703V746.297C31.7309 747.75 27.395 748.453 22.5669 748.406C7.70749 748.406 0.277802 740.25 0.277802 723.938V695.18H-11.9566V677.883H-5.48782C-3.2847 677.883 -1.4097 677.016 0.137177 675.281C1.68405 673.547 2.45749 671.297 2.45749 668.531ZM102.58 747V739.828C102.017 740.484 101.22 741.305 100.189 742.289C99.1578 743.227 96.8844 744.492 93.3687 746.086C89.9 747.633 86.2437 748.406 82.4 748.406C74.3375 748.406 67.7516 745.711 62.6422 740.32C57.5797 734.883 55.0484 727.664 55.0484 718.664V676.406H74.4547V716.766C74.4547 720.703 75.7437 723.961 78.3219 726.539C80.9469 729.117 84.2281 730.406 88.1656 730.406C92.5719 730.406 96.0641 728.977 98.6422 726.117C101.267 723.258 102.58 719.18 102.58 713.883V676.406H121.986V747H102.58ZM232.093 747V708.117C232.093 703.617 231.014 700.102 228.858 697.57C226.702 694.992 223.936 693.703 220.561 693.703C216.811 693.703 213.718 695.18 211.28 698.133C208.843 701.039 207.624 705.094 207.624 710.297V747H188.218V708.117C188.218 703.617 187.116 700.102 184.913 697.57C182.757 694.992 180.014 693.703 176.686 693.703C172.936 693.703 169.819 695.18 167.335 698.133C164.897 701.039 163.678 705.094 163.678 710.297V747H144.272V676.406H163.678V685.055C164.147 684.305 164.874 683.391 165.858 682.312C166.843 681.188 168.928 679.688 172.116 677.812C175.35 675.938 178.796 675 182.452 675C185.218 675 187.819 675.445 190.257 676.336C192.694 677.18 194.639 678.188 196.093 679.359C197.546 680.484 198.788 681.656 199.819 682.875C200.897 684.047 201.624 685.078 201.999 685.969L202.561 687.234C202.749 686.953 203.053 686.531 203.475 685.969C203.944 685.359 204.905 684.375 206.358 683.016C207.858 681.609 209.452 680.367 211.139 679.289C212.827 678.164 215.03 677.18 217.749 676.336C220.514 675.445 223.374 675 226.327 675C234.108 675 240.249 677.625 244.749 682.875C249.296 688.078 251.569 695.766 251.569 705.938V747H232.093ZM309.852 646.172H384.032V665.648H331.509V687.938H372.501V707.414H331.509V747H309.852V646.172ZM421.436 646.172V747H401.959V646.172H421.436ZM463.972 676.406V747H444.495V676.406H463.972ZM462.284 648.422C464.347 650.391 465.378 653.016 465.378 656.297C465.378 659.531 464.347 662.133 462.284 664.102C460.222 666.07 457.409 667.055 453.847 667.055C450.566 667.055 447.941 666.07 445.972 664.102C444.05 662.133 443.089 659.531 443.089 656.297C443.089 653.016 444.073 650.391 446.042 648.422C448.011 646.453 450.612 645.469 453.847 645.469C457.409 645.469 460.222 646.453 462.284 648.422ZM526.617 748.406C522.586 748.406 518.813 747.586 515.297 745.945C511.828 744.258 509.367 742.594 507.914 740.953L505.735 738.352V777.234H486.328V676.406H505.735V685.055C505.922 684.773 506.203 684.422 506.578 684C507 683.578 507.844 682.805 509.11 681.68C510.422 680.508 511.828 679.477 513.328 678.586C514.828 677.648 516.774 676.828 519.164 676.125C521.555 675.375 524.039 675 526.617 675C535.758 675 543.68 678.562 550.383 685.688C557.133 692.766 560.508 701.438 560.508 711.703C560.508 721.969 557.133 730.664 550.383 737.789C543.68 744.867 535.758 748.406 526.617 748.406ZM535.266 697.781C531.938 694.125 527.86 692.297 523.032 692.297C518.25 692.297 514.172 694.125 510.797 697.781C507.422 701.391 505.735 706.031 505.735 711.703C505.735 717.375 507.422 722.039 510.797 725.695C514.172 729.352 518.25 731.18 523.032 731.18C527.86 731.18 531.938 729.352 535.266 725.695C538.641 722.039 540.328 717.375 540.328 711.703C540.328 706.031 538.641 701.391 535.266 697.781ZM626.74 685.828L616.685 697.289C616.404 696.914 615.935 696.398 615.279 695.742C614.669 695.086 613.357 694.242 611.341 693.211C609.326 692.133 607.263 691.594 605.154 691.594C602.482 691.594 600.372 692.18 598.826 693.352C597.279 694.477 596.505 695.789 596.505 697.289C596.505 699.117 597.607 700.641 599.81 701.859C602.013 703.078 604.685 704.18 607.826 705.164C611.013 706.102 614.224 707.25 617.458 708.609C620.693 709.922 623.412 712.078 625.615 715.078C627.818 718.031 628.919 721.711 628.919 726.117C628.919 732.445 626.412 737.742 621.396 742.008C616.427 746.273 609.583 748.406 600.865 748.406C597.115 748.406 593.552 747.961 590.177 747.07C586.802 746.18 584.06 745.102 581.951 743.836C579.841 742.57 577.99 741.328 576.396 740.109C574.849 738.844 573.724 737.789 573.021 736.945L572.037 735.469L582.865 724.711C583.24 725.273 583.826 726 584.622 726.891C585.466 727.734 587.201 728.906 589.826 730.406C592.451 731.859 595.169 732.586 597.982 732.586C601.076 732.586 603.396 732 604.943 730.828C606.537 729.609 607.333 728.039 607.333 726.117C607.333 724.195 606.232 722.602 604.029 721.336C601.826 720.023 599.107 718.898 595.872 717.961C592.638 716.977 589.427 715.805 586.24 714.445C583.099 713.086 580.427 710.977 578.224 708.117C576.021 705.258 574.919 701.648 574.919 697.289C574.919 691.617 577.544 686.484 582.794 681.891C588.091 677.297 594.583 675 602.271 675C607.146 675 611.622 675.914 615.701 677.742C619.826 679.57 622.685 681.352 624.279 683.086L626.74 685.828Z" fill="url(#paint1_linear)"/>
    <defs>
        <linearGradient id="paint0_linear" x1="351.146" y1="1141.49" x2="-330.497" y2="558.186" gradientUnits="userSpaceOnUse">
            <stop stop-color="#005BBE" stop-opacity="0.29"/>
            <stop offset="1" stop-color="white" stop-opacity="0"/>
        </linearGradient>
        <linearGradient id="paint1_linear" x1="418.5" y1="694" x2="-93.5" y2="694" gradientUnits="userSpaceOnUse">
            <stop stop-color="#2A356B"/>
            <stop offset="1" stop-color="#2A356B" stop-opacity="0"/>
        </linearGradient>
    </defs>
</svg>
