<svg width="319" height="459" viewBox="0 0 319 459" fill="none" xmlns="http://www.w3.org/2000/svg">
    <path d="M-47.7242 394.172C-148.142 414.308 -153.11 334.426 -143.041 291.968L-172.073 283.977C-152.459 198.918 -110 25.3409 -97.0769 11.5097C-80.9229 -5.77923 39.1793 27.1895 45.7225 151.384C52.2657 275.578 177.05 154.19 172.428 291.348C168.321 413.236 77.7982 369.002 -47.7242 394.172Z" fill="url(#paint0_linear)"/>
    <path d="M-351.672 307.188C-358.703 300.312 -362.219 292.047 -362.219 282.391C-362.219 272.734 -358.703 264.484 -351.672 257.641C-344.609 250.797 -335.969 247.375 -325.75 247.375C-315.5 247.375 -306.859 250.797 -299.828 257.641C-292.766 264.484 -289.234 272.734 -289.234 282.391C-289.234 286.422 -289.875 290.234 -291.156 293.828C-292.438 297.422 -293.984 300.328 -295.797 302.547C-297.578 304.734 -299.375 306.656 -301.188 308.312C-303 309.969 -304.547 311.156 -305.828 311.875L-307.75 312.906C-307.625 313.094 -307.438 313.359 -307.188 313.703C-306.938 314.016 -306.328 314.562 -305.359 315.344C-304.391 316.094 -303.328 316.766 -302.172 317.359C-300.984 317.984 -299.375 318.547 -297.344 319.047C-295.281 319.578 -293.062 319.844 -290.688 319.844H-288.766V331.375H-291.625C-295.469 331.375 -299.094 330.891 -302.5 329.922C-305.875 328.953 -308.625 327.766 -310.75 326.359C-312.844 324.953 -314.703 323.547 -316.328 322.141C-317.922 320.734 -319.062 319.547 -319.75 318.578L-320.734 317.172C-322.141 317.359 -323.797 317.453 -325.703 317.453C-335.953 317.453 -344.609 314.031 -351.672 307.188ZM-341.031 266.734C-345.219 270.984 -347.312 276.219 -347.312 282.438C-347.312 288.625 -345.219 293.844 -341.031 298.094C-336.844 302.344 -331.75 304.469 -325.75 304.469C-319.719 304.469 -314.609 302.344 -310.422 298.094C-306.234 293.844 -304.141 288.625 -304.141 282.438C-304.141 276.219 -306.234 270.984 -310.422 266.734C-314.609 262.453 -319.719 260.312 -325.75 260.312C-331.75 260.312 -336.844 262.453 -341.031 266.734ZM-244.564 316V311.219C-244.939 311.656 -245.471 312.203 -246.158 312.859C-246.846 313.484 -248.361 314.328 -250.705 315.391C-253.018 316.422 -255.455 316.938 -258.018 316.938C-263.393 316.938 -267.783 315.141 -271.189 311.547C-274.564 307.922 -276.252 303.109 -276.252 297.109V268.938H-263.314V295.844C-263.314 298.469 -262.455 300.641 -260.736 302.359C-258.986 304.078 -256.799 304.938 -254.174 304.938C-251.236 304.938 -248.908 303.984 -247.189 302.078C-245.439 300.172 -244.564 297.453 -244.564 293.922V268.938H-231.627V316H-244.564ZM-190.848 316V311.219C-191.223 311.656 -191.754 312.203 -192.441 312.859C-193.098 313.484 -194.551 314.328 -196.801 315.391C-199.051 316.422 -201.394 316.938 -203.832 316.938C-208.519 316.938 -212.332 315.641 -215.269 313.047C-218.207 310.422 -219.676 307.25 -219.676 303.531C-219.676 299.688 -218.441 296.484 -215.973 293.922C-213.504 291.359 -210.098 289.688 -205.754 288.906L-190.848 286.234C-190.848 284.266 -191.566 282.656 -193.004 281.406C-194.441 280.156 -196.441 279.531 -199.004 279.531C-201.129 279.531 -203.066 279.938 -204.816 280.75C-206.566 281.531 -207.801 282.344 -208.519 283.188L-209.598 284.312L-216.769 277.141C-216.582 276.891 -216.332 276.562 -216.019 276.156C-215.676 275.719 -214.941 274.984 -213.816 273.953C-212.66 272.922 -211.41 272.016 -210.066 271.234C-208.723 270.422 -206.957 269.688 -204.769 269.031C-202.582 268.344 -200.348 268 -198.066 268C-192.129 268 -187.285 269.781 -183.535 273.344C-179.785 276.875 -177.91 281.328 -177.91 286.703V316H-190.848ZM-200.457 306.391C-197.519 306.391 -195.191 305.469 -193.473 303.625C-191.723 301.75 -190.848 299.156 -190.848 295.844V294.391L-201.394 296.312C-204.926 296.875 -206.691 298.641 -206.691 301.609C-206.691 304.797 -204.613 306.391 -200.457 306.391ZM-150.537 268.938V274.703C-150.162 274.203 -149.631 273.594 -148.943 272.875C-148.256 272.125 -146.756 271.125 -144.443 269.875C-142.099 268.625 -139.646 268 -137.084 268C-131.709 268 -127.334 269.859 -123.959 273.578C-120.553 277.297 -118.849 282.312 -118.849 288.625V316H-131.787V290.078C-131.787 287.203 -132.646 284.891 -134.365 283.141C-136.053 281.359 -138.24 280.469 -140.928 280.469C-143.865 280.469 -146.209 281.438 -147.959 283.375C-149.678 285.281 -150.537 288 -150.537 291.531V316H-163.474V268.938H-150.537ZM-98.695 263.688V255.062H-87.1638V269.922H-77.6013V281.453H-87.1638V300.156C-87.1638 301.625 -86.6325 302.875 -85.57 303.906C-84.4763 304.938 -83.1013 305.453 -81.445 305.453C-80.6013 305.453 -79.7888 305.375 -79.0075 305.219C-78.195 305.031 -77.5856 304.844 -77.1794 304.656L-76.6169 304.469V315.531C-79.1794 316.5 -82.07 316.969 -85.2888 316.938C-95.195 316.938 -100.148 311.5 -100.148 300.625V281.453H-108.304V269.922H-103.992C-102.523 269.922 -101.273 269.344 -100.242 268.188C-99.2106 267.031 -98.695 265.531 -98.695 263.688ZM-31.9469 316V311.219C-32.3219 311.656 -32.8531 312.203 -33.5406 312.859C-34.2281 313.484 -35.7437 314.328 -38.0875 315.391C-40.4 316.422 -42.8375 316.938 -45.4 316.938C-50.775 316.938 -55.1656 315.141 -58.5719 311.547C-61.9469 307.922 -63.6344 303.109 -63.6344 297.109V268.938H-50.6969V295.844C-50.6969 298.469 -49.8375 300.641 -48.1187 302.359C-46.3687 304.078 -44.1812 304.938 -41.5562 304.938C-38.6187 304.938 -36.2906 303.984 -34.5719 302.078C-32.8219 300.172 -31.9469 297.453 -31.9469 293.922V268.938H-19.0094V316H-31.9469ZM54.395 316V290.078C54.395 287.078 53.6762 284.734 52.2387 283.047C50.8012 281.328 48.9575 280.469 46.7075 280.469C44.2075 280.469 42.145 281.453 40.52 283.422C38.895 285.359 38.0825 288.062 38.0825 291.531V316H25.145V290.078C25.145 287.078 24.4106 284.734 22.9419 283.047C21.5044 281.328 19.6762 280.469 17.4575 280.469C14.9575 280.469 12.8794 281.453 11.2231 283.422C9.59811 285.359 8.78561 288.062 8.78561 291.531V316H-4.15189V268.938H8.78561V274.703C9.09811 274.203 9.58249 273.594 10.2387 272.875C10.895 272.125 12.2856 271.125 14.4106 269.875C16.5669 268.625 18.8637 268 21.3012 268C23.145 268 24.8794 268.297 26.5044 268.891C28.1294 269.453 29.4262 270.125 30.395 270.906C31.3637 271.656 32.1919 272.438 32.8794 273.25C33.5981 274.031 34.0825 274.719 34.3325 275.312L34.7075 276.156C34.8325 275.969 35.0356 275.688 35.3169 275.312C35.6294 274.906 36.27 274.25 37.2387 273.344C38.2387 272.406 39.3012 271.578 40.4262 270.859C41.5512 270.109 43.02 269.453 44.8325 268.891C46.6762 268.297 48.5825 268 50.5512 268C55.7387 268 59.8325 269.75 62.8325 273.25C65.8637 276.719 67.3794 281.844 67.3794 288.625V316H54.395ZM106.235 248.781H155.688V261.766H120.672V276.625H148.001V289.609H120.672V316H106.235V248.781ZM180.624 248.781V316H167.639V248.781H180.624ZM208.981 268.938V316H195.997V268.938H208.981ZM207.856 250.281C209.231 251.594 209.919 253.344 209.919 255.531C209.919 257.688 209.231 259.422 207.856 260.734C206.481 262.047 204.606 262.703 202.231 262.703C200.044 262.703 198.294 262.047 196.981 260.734C195.7 259.422 195.059 257.688 195.059 255.531C195.059 253.344 195.716 251.594 197.028 250.281C198.341 248.969 200.075 248.312 202.231 248.312C204.606 248.312 206.481 248.969 207.856 250.281ZM250.745 316.938C248.057 316.938 245.542 316.391 243.198 315.297C240.886 314.172 239.245 313.062 238.276 311.969L236.823 310.234V336.156H223.886V268.938H236.823V274.703C236.948 274.516 237.136 274.281 237.386 274C237.667 273.719 238.229 273.203 239.073 272.453C239.948 271.672 240.886 270.984 241.886 270.391C242.886 269.766 244.182 269.219 245.776 268.75C247.37 268.25 249.026 268 250.745 268C256.839 268 262.12 270.375 266.589 275.125C271.089 279.844 273.339 285.625 273.339 292.469C273.339 299.312 271.089 305.109 266.589 309.859C262.12 314.578 256.839 316.938 250.745 316.938ZM256.511 283.188C254.292 280.75 251.573 279.531 248.354 279.531C245.167 279.531 242.448 280.75 240.198 283.188C237.948 285.594 236.823 288.688 236.823 292.469C236.823 296.25 237.948 299.359 240.198 301.797C242.448 304.234 245.167 305.453 248.354 305.453C251.573 305.453 254.292 304.234 256.511 301.797C258.761 299.359 259.886 296.25 259.886 292.469C259.886 288.688 258.761 285.594 256.511 283.188ZM317.493 275.219L310.79 282.859C310.602 282.609 310.29 282.266 309.852 281.828C309.446 281.391 308.571 280.828 307.227 280.141C305.884 279.422 304.509 279.062 303.102 279.062C301.321 279.062 299.915 279.453 298.884 280.234C297.852 280.984 297.337 281.859 297.337 282.859C297.337 284.078 298.071 285.094 299.54 285.906C301.009 286.719 302.79 287.453 304.884 288.109C307.009 288.734 309.149 289.5 311.306 290.406C313.462 291.281 315.274 292.719 316.743 294.719C318.212 296.688 318.946 299.141 318.946 302.078C318.946 306.297 317.274 309.828 313.931 312.672C310.618 315.516 306.056 316.938 300.243 316.938C297.743 316.938 295.368 316.641 293.118 316.047C290.868 315.453 289.04 314.734 287.634 313.891C286.227 313.047 284.993 312.219 283.931 311.406C282.899 310.562 282.149 309.859 281.681 309.297L281.024 308.312L288.243 301.141C288.493 301.516 288.884 302 289.415 302.594C289.977 303.156 291.134 303.938 292.884 304.938C294.634 305.906 296.446 306.391 298.321 306.391C300.384 306.391 301.931 306 302.962 305.219C304.024 304.406 304.556 303.359 304.556 302.078C304.556 300.797 303.821 299.734 302.352 298.891C300.884 298.016 299.071 297.266 296.915 296.641C294.759 295.984 292.618 295.203 290.493 294.297C288.399 293.391 286.618 291.984 285.149 290.078C283.681 288.172 282.946 285.766 282.946 282.859C282.946 279.078 284.696 275.656 288.196 272.594C291.727 269.531 296.056 268 301.181 268C304.431 268 307.415 268.609 310.134 269.828C312.884 271.047 314.79 272.234 315.852 273.391L317.493 275.219Z" fill="url(#paint1_linear)"/>
    <defs>
        <linearGradient id="paint0_linear" x1="154.073" y1="464.488" x2="-123.296" y2="227.133" gradientUnits="userSpaceOnUse">
            <stop stop-color="#005BBE" stop-opacity="0.29"/>
            <stop offset="1" stop-color="white" stop-opacity="0"/>
        </linearGradient>
        <linearGradient id="paint1_linear" x1="186.575" y1="302.953" x2="-159.705" y2="302.953" gradientUnits="userSpaceOnUse">
            <stop stop-color="#2A356B"/>
            <stop offset="1" stop-color="#2A356B" stop-opacity="0"/>
        </linearGradient>
    </defs>
</svg>
