<svg width="601" height="960" viewBox="0 0 601 960" fill="none" xmlns="http://www.w3.org/2000/svg">
    <path d="M-144.777 951.691C-391.558 1001.17 -403.765 804.863 -379.021 700.522L-450.368 680.884C-402.166 471.847 -297.822 45.2762 -266.063 11.2856C-226.364 -31.2026 68.791 49.8193 84.8712 355.03C100.951 660.241 407.613 361.926 396.255 698.998C386.16 998.543 163.698 889.835 -144.777 951.691Z" fill="url(#paint0_linear)"/>
    <path d="M-405.008 716.781C-415.555 706.469 -420.828 694.07 -420.828 679.586C-420.828 665.102 -415.555 652.727 -405.008 642.461C-394.414 632.195 -381.453 627.062 -366.125 627.062C-350.75 627.062 -337.789 632.195 -327.242 642.461C-316.648 652.727 -311.352 665.102 -311.352 679.586C-311.352 685.633 -312.312 691.352 -314.234 696.742C-316.156 702.133 -318.477 706.492 -321.195 709.82C-323.867 713.102 -326.562 715.984 -329.281 718.469C-332 720.953 -334.32 722.734 -336.242 723.812L-339.125 725.359C-338.938 725.641 -338.656 726.039 -338.281 726.555C-337.906 727.023 -336.992 727.844 -335.539 729.016C-334.086 730.141 -332.492 731.148 -330.758 732.039C-328.977 732.977 -326.562 733.82 -323.516 734.57C-320.422 735.367 -317.094 735.766 -313.531 735.766H-310.648V753.062H-314.938C-320.703 753.062 -326.141 752.336 -331.25 750.883C-336.312 749.43 -340.438 747.648 -343.625 745.539C-346.766 743.43 -349.555 741.32 -351.992 739.211C-354.383 737.102 -356.094 735.32 -357.125 733.867L-358.602 731.758C-360.711 732.039 -363.195 732.18 -366.055 732.18C-381.43 732.18 -394.414 727.047 -405.008 716.781ZM-389.047 656.102C-395.328 662.477 -398.469 670.328 -398.469 679.656C-398.469 688.938 -395.328 696.766 -389.047 703.141C-382.766 709.516 -375.125 712.703 -366.125 712.703C-357.078 712.703 -349.414 709.516 -343.133 703.141C-336.852 696.766 -333.711 688.938 -333.711 679.656C-333.711 670.328 -336.852 662.477 -343.133 656.102C-349.414 649.68 -357.078 646.469 -366.125 646.469C-375.125 646.469 -382.766 649.68 -389.047 656.102ZM-244.347 730V722.828C-244.909 723.484 -245.706 724.305 -246.737 725.289C-247.768 726.227 -250.042 727.492 -253.558 729.086C-257.026 730.633 -260.683 731.406 -264.526 731.406C-272.589 731.406 -279.175 728.711 -284.284 723.32C-289.347 717.883 -291.878 710.664 -291.878 701.664V659.406H-272.472V699.766C-272.472 703.703 -271.183 706.961 -268.604 709.539C-265.979 712.117 -262.698 713.406 -258.761 713.406C-254.354 713.406 -250.862 711.977 -248.284 709.117C-245.659 706.258 -244.347 702.18 -244.347 696.883V659.406H-224.94V730H-244.347ZM-163.771 730V722.828C-164.334 723.484 -165.131 724.305 -166.162 725.289C-167.146 726.227 -169.326 727.492 -172.701 729.086C-176.076 730.633 -179.592 731.406 -183.248 731.406C-190.279 731.406 -195.998 729.461 -200.404 725.57C-204.81 721.633 -207.013 716.875 -207.013 711.297C-207.013 705.531 -205.162 700.727 -201.459 696.883C-197.756 693.039 -192.646 690.531 -186.131 689.359L-163.771 685.352C-163.771 682.398 -164.849 679.984 -167.006 678.109C-169.162 676.234 -172.162 675.297 -176.006 675.297C-179.193 675.297 -182.099 675.906 -184.724 677.125C-187.349 678.297 -189.201 679.516 -190.279 680.781L-191.896 682.469L-202.654 671.711C-202.373 671.336 -201.998 670.844 -201.529 670.234C-201.013 669.578 -199.912 668.477 -198.224 666.93C-196.49 665.383 -194.615 664.023 -192.599 662.852C-190.584 661.633 -187.935 660.531 -184.654 659.547C-181.373 658.516 -178.021 658 -174.599 658C-165.693 658 -158.428 660.672 -152.803 666.016C-147.178 671.312 -144.365 677.992 -144.365 686.055V730H-163.771ZM-178.185 715.586C-173.779 715.586 -170.287 714.203 -167.709 711.438C-165.084 708.625 -163.771 704.734 -163.771 699.766V697.586L-179.592 700.469C-184.888 701.312 -187.537 703.961 -187.537 708.414C-187.537 713.195 -184.42 715.586 -178.185 715.586ZM-103.305 659.406V668.055C-102.743 667.305 -101.946 666.391 -100.915 665.312C-99.8834 664.188 -97.6334 662.688 -94.1647 660.812C-90.649 658.938 -86.9694 658 -83.1256 658C-75.0631 658 -68.5006 660.789 -63.4381 666.367C-58.3287 671.945 -55.774 679.469 -55.774 688.938V730H-75.1803V691.117C-75.1803 686.805 -76.4694 683.336 -79.0475 680.711C-81.5787 678.039 -84.86 676.703 -88.8912 676.703C-93.2975 676.703 -96.8131 678.156 -99.4381 681.062C-102.016 683.922 -103.305 688 -103.305 693.297V730H-122.712V659.406H-103.305ZM-25.5425 651.531V638.594H-8.24564V660.883H6.09811V678.18H-8.24564V706.234C-8.24564 708.438 -7.44876 710.312 -5.85501 711.859C-4.21439 713.406 -2.15189 714.18 0.332489 714.18C1.59811 714.18 2.81686 714.062 3.98874 713.828C5.20749 713.547 6.12155 713.266 6.73093 712.984L7.57468 712.703V729.297C3.73093 730.75 -0.605011 731.453 -5.43314 731.406C-20.2925 731.406 -27.7222 723.25 -27.7222 706.938V678.18H-39.9566V660.883H-33.4878C-31.2847 660.883 -29.4097 660.016 -27.8628 658.281C-26.3159 656.547 -25.5425 654.297 -25.5425 651.531ZM74.5797 730V722.828C74.0172 723.484 73.2203 724.305 72.1891 725.289C71.1578 726.227 68.8844 727.492 65.3687 729.086C61.9 730.633 58.2437 731.406 54.4 731.406C46.3375 731.406 39.7516 728.711 34.6422 723.32C29.5797 717.883 27.0484 710.664 27.0484 701.664V659.406H46.4547V699.766C46.4547 703.703 47.7437 706.961 50.3219 709.539C52.9469 712.117 56.2281 713.406 60.1656 713.406C64.5719 713.406 68.0641 711.977 70.6422 709.117C73.2672 706.258 74.5797 702.18 74.5797 696.883V659.406H93.9859V730H74.5797ZM204.093 730V691.117C204.093 686.617 203.014 683.102 200.858 680.57C198.702 677.992 195.936 676.703 192.561 676.703C188.811 676.703 185.718 678.18 183.28 681.133C180.843 684.039 179.624 688.094 179.624 693.297V730H160.218V691.117C160.218 686.617 159.116 683.102 156.913 680.57C154.757 677.992 152.014 676.703 148.686 676.703C144.936 676.703 141.819 678.18 139.335 681.133C136.897 684.039 135.678 688.094 135.678 693.297V730H116.272V659.406H135.678V668.055C136.147 667.305 136.874 666.391 137.858 665.312C138.843 664.188 140.928 662.688 144.116 660.812C147.35 658.938 150.796 658 154.452 658C157.218 658 159.819 658.445 162.257 659.336C164.694 660.18 166.639 661.188 168.093 662.359C169.546 663.484 170.788 664.656 171.819 665.875C172.897 667.047 173.624 668.078 173.999 668.969L174.561 670.234C174.749 669.953 175.053 669.531 175.475 668.969C175.944 668.359 176.905 667.375 178.358 666.016C179.858 664.609 181.452 663.367 183.139 662.289C184.827 661.164 187.03 660.18 189.749 659.336C192.514 658.445 195.374 658 198.327 658C206.108 658 212.249 660.625 216.749 665.875C221.296 671.078 223.569 678.766 223.569 688.938V730H204.093ZM281.852 629.172H356.032V648.648H303.509V670.938H344.501V690.414H303.509V730H281.852V629.172ZM393.436 629.172V730H373.959V629.172H393.436ZM435.972 659.406V730H416.495V659.406H435.972ZM434.284 631.422C436.347 633.391 437.378 636.016 437.378 639.297C437.378 642.531 436.347 645.133 434.284 647.102C432.222 649.07 429.409 650.055 425.847 650.055C422.566 650.055 419.941 649.07 417.972 647.102C416.05 645.133 415.089 642.531 415.089 639.297C415.089 636.016 416.073 633.391 418.042 631.422C420.011 629.453 422.612 628.469 425.847 628.469C429.409 628.469 432.222 629.453 434.284 631.422ZM498.617 731.406C494.586 731.406 490.813 730.586 487.297 728.945C483.828 727.258 481.367 725.594 479.914 723.953L477.735 721.352V760.234H458.328V659.406H477.735V668.055C477.922 667.773 478.203 667.422 478.578 667C479 666.578 479.844 665.805 481.11 664.68C482.422 663.508 483.828 662.477 485.328 661.586C486.828 660.648 488.774 659.828 491.164 659.125C493.555 658.375 496.039 658 498.617 658C507.758 658 515.68 661.562 522.383 668.688C529.133 675.766 532.508 684.438 532.508 694.703C532.508 704.969 529.133 713.664 522.383 720.789C515.68 727.867 507.758 731.406 498.617 731.406ZM507.266 680.781C503.938 677.125 499.86 675.297 495.032 675.297C490.25 675.297 486.172 677.125 482.797 680.781C479.422 684.391 477.735 689.031 477.735 694.703C477.735 700.375 479.422 705.039 482.797 708.695C486.172 712.352 490.25 714.18 495.032 714.18C499.86 714.18 503.938 712.352 507.266 708.695C510.641 705.039 512.328 700.375 512.328 694.703C512.328 689.031 510.641 684.391 507.266 680.781ZM598.74 668.828L588.685 680.289C588.404 679.914 587.935 679.398 587.279 678.742C586.669 678.086 585.357 677.242 583.341 676.211C581.326 675.133 579.263 674.594 577.154 674.594C574.482 674.594 572.372 675.18 570.826 676.352C569.279 677.477 568.505 678.789 568.505 680.289C568.505 682.117 569.607 683.641 571.81 684.859C574.013 686.078 576.685 687.18 579.826 688.164C583.013 689.102 586.224 690.25 589.458 691.609C592.693 692.922 595.412 695.078 597.615 698.078C599.818 701.031 600.919 704.711 600.919 709.117C600.919 715.445 598.412 720.742 593.396 725.008C588.427 729.273 581.583 731.406 572.865 731.406C569.115 731.406 565.552 730.961 562.177 730.07C558.802 729.18 556.06 728.102 553.951 726.836C551.841 725.57 549.99 724.328 548.396 723.109C546.849 721.844 545.724 720.789 545.021 719.945L544.037 718.469L554.865 707.711C555.24 708.273 555.826 709 556.622 709.891C557.466 710.734 559.201 711.906 561.826 713.406C564.451 714.859 567.169 715.586 569.982 715.586C573.076 715.586 575.396 715 576.943 713.828C578.537 712.609 579.333 711.039 579.333 709.117C579.333 707.195 578.232 705.602 576.029 704.336C573.826 703.023 571.107 701.898 567.872 700.961C564.638 699.977 561.427 698.805 558.24 697.445C555.099 696.086 552.427 693.977 550.224 691.117C548.021 688.258 546.919 684.648 546.919 680.289C546.919 674.617 549.544 669.484 554.794 664.891C560.091 660.297 566.583 658 574.271 658C579.146 658 583.622 658.914 587.701 660.742C591.826 662.57 594.685 664.352 596.279 666.086L598.74 668.828Z" fill="url(#paint1_linear)"/>
    <defs>
        <linearGradient id="paint0_linear" x1="351.146" y1="1124.49" x2="-330.497" y2="541.186" gradientUnits="userSpaceOnUse">
            <stop stop-color="#005BBE" stop-opacity="0.29"/>
            <stop offset="1" stop-color="white" stop-opacity="0"/>
        </linearGradient>
        <linearGradient id="paint1_linear" x1="390.5" y1="677" x2="-121.5" y2="677" gradientUnits="userSpaceOnUse">
            <stop stop-color="#2A356B"/>
            <stop offset="1" stop-color="#2A356B" stop-opacity="0"/>
        </linearGradient>
    </defs>
</svg>
