<svg width="18" height="18" viewBox="0 0 18 18" fill="none" xmlns="http://www.w3.org/2000/svg">
<path fill-rule="evenodd" clip-rule="evenodd" d="M0 8V2C0 0.9 0.9 0 2 0H8V5L5.62 4.4C4.88 4.22 4.22 4.88 4.4 5.62L5 8H0ZM0 10H5L4.41 12.39C4.22 13.12 4.89 13.78 5.62 13.6L8 13V18H2C0.9 18 0 17.1 0 16V10ZM12.38 13.6L10 13V18H16C17.1 18 18 17.1 18 16V10H13L13.6 12.38C13.78 13.12 13.12 13.78 12.38 13.6ZM10 0H16C17.1 0 18 0.9 18 2V8H13L13.59 5.61C13.78 4.88 13.11 4.22 12.38 4.4L10 5V0Z" fill="white"/>
</svg>
