<svg width="34" height="34" viewBox="0 0 34 34" fill="none" xmlns="http://www.w3.org/2000/svg">
<g filter="url(#filter0_d)">
<path d="M17 22C15.6393 22.0038 14.2957 21.6959 13.0724 21.0999C12.6247 20.8822 12.1958 20.6278 11.79 20.3394L11.6667 20.2494C10.5505 19.4256 9.63796 18.357 8.99908 17.1255C8.33825 15.851 7.99551 14.4356 8.00004 13C8.00004 8.02942 12.0295 4 17 4C21.9705 4 26 8.02942 26 13C26.0044 14.4349 25.662 15.8497 25.0018 17.1237C24.3638 18.3544 23.4526 19.4227 22.3378 20.2467C21.9173 20.5545 21.4711 20.8255 21.0041 21.0567L20.9321 21.0927C19.708 21.6919 18.3628 22.0022 17 22ZM17 17.4999C15.6513 17.4973 14.4149 18.2506 13.7987 19.4502C15.816 20.4494 18.184 20.4494 20.2013 19.4502V19.4457C19.5843 18.2474 18.3478 17.4958 17 17.4999ZM17 15.7C18.9495 15.7025 20.747 16.7531 21.7061 18.4503L21.7196 18.4386L21.7322 18.4278L21.7169 18.4413L21.7079 18.4485C23.9839 16.4821 24.7978 13.3081 23.7487 10.4891C22.6997 7.67007 20.0088 5.80028 17.0009 5.80028C13.993 5.80028 11.3022 7.67007 10.2531 10.4891C9.20402 13.3081 10.0179 16.4821 12.2939 18.4485C13.2536 16.7521 15.0509 15.7023 17 15.7ZM17 14.8C15.0118 14.8 13.4 13.1882 13.4 11.2C13.4 9.21175 15.0118 7.59999 17 7.59999C18.9882 7.59999 20.6 9.21175 20.6 11.2C20.6 12.1547 20.2207 13.0704 19.5456 13.7455C18.8704 14.4207 17.9548 14.8 17 14.8ZM17 9.39998C16.0059 9.39998 15.2 10.2059 15.2 11.2C15.2 12.1941 16.0059 13 17 13C17.9941 13 18.8 12.1941 18.8 11.2C18.8 10.2059 17.9941 9.39998 17 9.39998Z" fill="white"/>
</g>
<defs>
<filter id="filter0_d" x="0" y="0" width="34" height="34" filterUnits="userSpaceOnUse" color-interpolation-filters="sRGB">
<feFlood flood-opacity="0" result="BackgroundImageFix"/>
<feColorMatrix in="SourceAlpha" type="matrix" values="0 0 0 0 0 0 0 0 0 0 0 0 0 0 0 0 0 0 127 0"/>
<feOffset dy="4"/>
<feGaussianBlur stdDeviation="4"/>
<feColorMatrix type="matrix" values="0 0 0 0 0.246667 0 0 0 0 0.326004 0 0 0 0 0.925 0 0 0 0.48 0"/>
<feBlend mode="normal" in2="BackgroundImageFix" result="effect1_dropShadow"/>
<feBlend mode="normal" in="SourceGraphic" in2="effect1_dropShadow" result="shape"/>
</filter>
</defs>
</svg>
