<svg width="42" height="42" viewBox="0 0 42 42" fill="none" xmlns="http://www.w3.org/2000/svg">
    <rect width="42" height="41" rx="8" fill="white" fill-opacity="0.1"/>
    <g filter="url(#filter0_d)">
        <path d="M21 30C19.6393 30.0038 18.2957 29.6959 17.0724 29.0999C16.6247 28.8822 16.1958 28.6278 15.79 28.3394L15.6667 28.2494C14.5505 27.4256 13.638 26.357 12.9991 25.1255C12.3382 23.851 11.9955 22.4356 12 21C12 16.0294 16.0295 12 21 12C25.9705 12 30 16.0294 30 21C30.0044 22.4349 29.662 23.8497 29.0018 25.1237C28.3638 26.3544 27.4526 27.4227 26.3378 28.2467C25.9173 28.5545 25.4711 28.8255 25.0041 29.0567L24.9321 29.0927C23.708 29.6919 22.3628 30.0022 21 30ZM21 25.4999C19.6513 25.4973 18.4149 26.2506 17.7987 27.4502C19.816 28.4494 22.184 28.4494 24.2013 27.4502V27.4457C23.5843 26.2474 22.3478 25.4958 21 25.4999ZM21 23.7C22.9495 23.7025 24.747 24.7531 25.7061 26.4503L25.7196 26.4386L25.7322 26.4278L25.7169 26.4413L25.7079 26.4485C27.9839 24.4821 28.7978 21.3081 27.7487 18.4891C26.6997 15.6701 24.0088 13.8003 21.0009 13.8003C17.993 13.8003 15.3022 15.6701 14.2531 18.4891C13.204 21.3081 14.0179 24.4821 16.2939 26.4485C17.2536 24.7521 19.0509 23.7023 21 23.7ZM21 22.8C19.0118 22.8 17.4 21.1882 17.4 19.2C17.4 17.2118 19.0118 15.6 21 15.6C22.9882 15.6 24.6 17.2118 24.6 19.2C24.6 20.1547 24.2207 21.0704 23.5456 21.7455C22.8704 22.4207 21.9548 22.8 21 22.8ZM21 17.4C20.0059 17.4 19.2 18.2059 19.2 19.2C19.2 20.1941 20.0059 21 21 21C21.9941 21 22.8 20.1941 22.8 19.2C22.8 18.2059 21.9941 17.4 21 17.4Z" fill="white"/>
    </g>
    <defs>
        <filter id="filter0_d" x="4" y="8" width="34" height="34" filterUnits="userSpaceOnUse" color-interpolation-filters="sRGB">
            <feFlood flood-opacity="0" result="BackgroundImageFix"/>
            <feColorMatrix in="SourceAlpha" type="matrix" values="0 0 0 0 0 0 0 0 0 0 0 0 0 0 0 0 0 0 127 0"/>
            <feOffset dy="4"/>
            <feGaussianBlur stdDeviation="4"/>
            <feColorMatrix type="matrix" values="0 0 0 0 0.246667 0 0 0 0 0.326004 0 0 0 0 0.925 0 0 0 0.48 0"/>
            <feBlend mode="normal" in2="BackgroundImageFix" result="effect1_dropShadow"/>
            <feBlend mode="normal" in="SourceGraphic" in2="effect1_dropShadow" result="shape"/>
        </filter>
    </defs>
</svg>
