<svg width="803" height="895" viewBox="0 132 483 895" fill="none" xmlns="http://www.w3.org/2000/svg" xmlns:xlink="http://www.w3.org/1999/xlink">
    <path d="M-382 237.741L232.221 133.139C240.533 131.723 249.027 131.739 257.334 133.185L858 237.741L876 781L265.54 633.515C251.879 630.215 237.647 630.053 223.915 633.043L-547.5 801L-382 237.741Z" fill="url(#paint0_linear)"/>
    <path d="M-44.991 151.202C-147.602 6.99939 -248.4 101.704 -285.972 167.082L-331.985 142.783C-407.959 273.101 -559.931 541.913 -560.029 574.624C-560.151 615.512 -369.903 716.145 -214.676 567.509C-59.4485 418.873 -45.9922 719.407 110.52 541.232C249.608 382.894 83.2726 331.455 -44.991 151.202Z" fill="url(#paint1_linear)"/>
    <g filter="url(#filter0_d)">
        <rect x="15" y="482" width="430" height="301" fill="url(#pattern0)"/>
    </g>
    <path d="M347.187 609.137C434.231 732.731 520.719 652.259 553.083 596.574L592.283 617.519C657.716 506.526 788.637 277.556 788.856 249.617C789.13 214.693 627.051 127.95 493.849 254.26C360.647 380.57 350.401 123.819 215.979 275.354C96.5223 410.018 238.381 454.644 347.187 609.137Z" fill="url(#paint2_linear)"/>
    <defs>
        <linearGradient id="paint0_linear" x1="238" y1="334.167" x2="238" y2="1268.83" gradientUnits="userSpaceOnUse">
            <stop stop-color="#006EE2"/>
            <stop offset="1" stop-color="#167FEE" stop-opacity="0.83"/>
        </linearGradient>
        <linearGradient id="paint1_linear" x1="292.325" y1="301.497" x2="-337.845" y2="272.089" gradientUnits="userSpaceOnUse">
            <stop stop-color="#005BBE" stop-opacity="0.29"/>
            <stop offset="1" stop-color="white" stop-opacity="0"/>
        </linearGradient>
        <linearGradient id="paint2_linear" x1="59.6978" y1="479.364" x2="597.825" y2="507.099" gradientUnits="userSpaceOnUse">
            <stop stop-color="#005BBE" stop-opacity="0.12"/>
            <stop offset="1" stop-color="white" stop-opacity="0"/>
        </linearGradient>
    </defs>
</svg>
