<svg width="37" height="37" viewBox="0 0 37 37" fill="none" xmlns="http://www.w3.org/2000/svg">
    <rect width="37" height="37" rx="8" fill="white" fill-opacity="0.1"/>
    <g filter="url(#filter0_d)">
        <path d="M15.3973 27C13.6189 27 12.0156 25.9287 11.335 24.2857C10.6543 22.6428 11.0303 20.7515 12.2876 19.4938L14.1538 17.6276L15.3973 18.8712L13.532 20.7365C12.8654 21.4031 12.6051 22.3746 12.8491 23.2852C13.0931 24.1957 13.8043 24.907 14.7148 25.1509C15.6254 25.3949 16.5969 25.1346 17.2635 24.468L19.1288 22.6027L20.3724 23.8471L18.5071 25.7124C17.684 26.5396 16.5642 27.0032 15.3973 27ZM16.0191 23.2245L14.7756 21.9809L20.9942 15.7623L22.2377 17.0059L16.02 23.2236L16.0191 23.2245ZM22.8603 21.3592L21.6159 20.1156L23.4812 18.2503C24.1569 17.5857 24.4242 16.6098 24.1815 15.6937C23.9388 14.7776 23.2234 14.062 22.3074 13.8191C21.3913 13.5762 20.4153 13.8433 19.7506 14.5188L17.8844 16.3841L16.6409 15.1405L18.5071 13.2743C20.2265 11.5699 23.0002 11.576 24.7121 13.2879C26.424 14.9999 26.4301 17.7736 24.7257 19.493L22.8603 21.3583V21.3592Z" fill="white"/>
    </g>
    <defs>
        <filter id="filter0_d" x="5" y="10" width="27" height="27" filterUnits="userSpaceOnUse" color-interpolation-filters="sRGB">
            <feFlood flood-opacity="0" result="BackgroundImageFix"/>
            <feColorMatrix in="SourceAlpha" type="matrix" values="0 0 0 0 0 0 0 0 0 0 0 0 0 0 0 0 0 0 127 0"/>
            <feOffset dy="4"/>
            <feGaussianBlur stdDeviation="3"/>
            <feColorMatrix type="matrix" values="0 0 0 0 0.0469097 0 0 0 0 0.395438 0 0 0 0 0.804167 0 0 0 0.27 0"/>
            <feBlend mode="normal" in2="BackgroundImageFix" result="effect1_dropShadow"/>
            <feBlend mode="normal" in="SourceGraphic" in2="effect1_dropShadow" result="shape"/>
        </filter>
    </defs>
</svg>
