<svg width="36" height="36" viewBox="0 0 36 36" fill="none" xmlns="http://www.w3.org/2000/svg">
    <rect width="36" height="36" rx="10" fill="url(#paint0_linear)"/>
    <path fill-rule="evenodd" clip-rule="evenodd" d="M14.4501 20.2018C14.7884 19.965 15.2553 20.0003 15.5511 20.285L17.5 22.161L19.4489 20.285C19.7447 20.0003 20.2116 19.965 20.5499 20.2018L25.2248 23.4745C25.3974 23.5954 25.5165 23.7743 25.5583 23.9758L25.9833 26.0212C26.0754 26.4643 25.7769 26.8953 25.3165 26.984C24.8562 27.0726 24.4084 26.7852 24.3164 26.3421L23.9565 24.61L20.1374 21.9364L18.101 23.8966C17.7691 24.2161 17.2309 24.2161 16.899 23.8966L14.8626 21.9364L11.0435 24.61L10.6836 26.3421C10.5916 26.7852 10.1438 27.0726 9.68345 26.984C9.22314 26.8953 8.92461 26.4643 9.01667 26.0212L9.44166 23.9758C9.48352 23.7743 9.60259 23.5954 9.7752 23.4745L14.4501 20.2018Z" fill="#2A356B"/>
    <path fill-rule="evenodd" clip-rule="evenodd" d="M11.5501 14.7272C11.5501 11.5642 14.214 9 17.5 9C20.786 9 23.4499 11.5642 23.4499 14.7272C23.4499 16.3085 22.783 17.7414 21.7072 18.777C21.3753 19.0965 20.8371 19.0965 20.5052 18.777C20.1732 18.4575 20.1732 17.9394 20.5052 17.6199C20.7373 17.3965 20.9426 17.1475 21.1162 16.8778C21.1501 16.6438 21.0569 16.4279 20.7989 16.1675C20.542 15.9083 20.2293 15.7121 19.9196 15.5178C19.8425 15.4694 19.7656 15.4212 19.6898 15.3721C19.6585 15.3518 19.5433 15.2995 19.2882 15.2371C19.0507 15.1791 18.7679 15.1294 18.4505 15.077C18.1463 15.0267 17.8039 14.973 17.4977 14.9103C17.2021 14.8499 16.864 14.7669 16.5835 14.6346C15.9484 14.3351 15.5915 13.7159 15.4006 13.3847C15.3679 13.328 15.3389 13.277 15.3127 13.231C15.2517 13.1238 15.1922 13.0151 15.1207 12.9138C15.0754 12.9017 15.059 12.9072 15.0432 12.9125L15.0402 12.9135C14.9765 12.9344 14.7467 13.0437 14.3716 13.5598C13.982 14.0959 13.7105 15.0365 13.6782 16.5192C13.8859 16.9287 14.1629 17.3004 14.4948 17.6199C14.8268 17.9394 14.8268 18.4575 14.4948 18.777C14.1629 19.0965 13.6247 19.0965 13.2928 18.777C12.7719 18.2756 12.3469 17.6812 12.0469 17.0213C11.7271 16.3178 11.5501 15.5413 11.5501 14.7272ZM21.7495 14.7818C21.7801 12.5318 19.8383 10.6363 17.5 10.6363C16.6601 10.6363 15.8772 10.8709 15.2179 11.2755C15.487 11.2965 15.7143 11.3728 15.8861 11.4446M21.7495 14.7818C21.4012 14.4889 21.0268 14.2564 20.7863 14.1071C20.4476 13.8968 20.0997 13.7472 19.7067 13.6511C19.3965 13.5753 19.0528 13.5162 18.7381 13.4642C18.4102 13.41 18.1149 13.3637 17.8511 13.3097C17.5767 13.2536 17.4125 13.2034 17.3316 13.1652C17.0872 13.0499 16.9536 12.7085 16.8285 12.4882C16.7497 12.3493 16.654 12.1808 16.5605 12.0428C16.4563 11.8891 16.2431 11.5939 15.8861 11.4446" fill="#2A356B"/>
    <defs>
        <linearGradient id="paint0_linear" x1="18" y1="-8" x2="18" y2="36" gradientUnits="userSpaceOnUse">
            <stop stop-color="#005BBE" stop-opacity="0.29"/>
            <stop offset="1" stop-color="white" stop-opacity="0"/>
        </linearGradient>
    </defs>
</svg>
