<svg width="22" height="23" viewBox="0 0 22 23" fill="none" xmlns="http://www.w3.org/2000/svg">
    <path d="M11.0034 23C5.40046 22.924 0.876322 18.2659 0.802473 12.4972C0.876322 6.72843 5.40046 2.0704 11.0034 1.99437C16.6063 2.0704 21.1305 6.72843 21.2043 12.4972C21.1305 18.2659 16.6063 22.924 11.0034 23ZM11.0034 4.32833C6.64553 4.3874 3.12672 8.01034 3.06935 12.4972C3.12672 16.984 6.64553 20.607 11.0034 20.666C15.3613 20.607 18.8801 16.984 18.9375 12.4972C18.8801 8.01034 15.3613 4.3874 11.0034 4.32833ZM16.6706 13.6642H9.86996V6.66229H12.1368V11.3302H16.6706V13.6642ZM20.4019 5.15455L16.9913 1.65361L18.5884 0L22 3.50094L20.4019 5.15338V5.15455ZM1.60381 5.15455L0 3.50094L3.39011 0L4.99392 1.65361L1.60608 5.15455H1.60381Z" fill="#C0C8D1"/>
</svg>
