<svg width="42" height="42" viewBox="0 0 42 42" fill="none" xmlns="http://www.w3.org/2000/svg">
    <rect width="42" height="42" rx="8" fill="#A4C1E0" fill-opacity="0.19"/>
    <path d="M24.5 29H15.5C14.6716 29 14 28.2837 14 27.4V17.8H15.5V27.4H24.5V29ZM27.5 25.8H18.5C17.6716 25.8 17 25.0837 17 24.2V14.6C17 13.7163 17.6716 13 18.5 13H27.5C28.3284 13 29 13.7163 29 14.6V24.2C29 25.0837 28.3284 25.8 27.5 25.8ZM18.5 14.6V24.2H27.5V14.6H18.5ZM22.25 22.2488L19.4698 19.2824L20.5302 18.1512L22.25 19.9864L25.4698 16.552L26.5303 17.6832L22.25 22.248V22.2488Z" fill="#2E3D49"/>
</svg>
