<svg width="34" height="34" viewBox="0 0 34 34" fill="none" xmlns="http://www.w3.org/2000/svg">
    <rect width="34" height="34" rx="4" fill="#FF4040" fill-opacity="0.08"/>
    <path d="M20.8889 24H13.1111C12.252 24 11.5556 23.3732 11.5556 22.6V13.5H10V12.1H13.1111V11.4C13.1111 10.6268 13.8076 10 14.6667 10H19.3333C20.1924 10 20.8889 10.6268 20.8889 11.4V12.1H24V13.5H22.4444V22.6C22.4444 23.3732 21.748 24 20.8889 24ZM13.1111 13.5V22.6H20.8889V13.5H13.1111ZM14.6667 11.4V12.1H19.3333V11.4H14.6667ZM19.3333 21.2H17.7778V14.9H19.3333V21.2ZM16.2222 21.2H14.6667V14.9H16.2222V21.2Z" fill="#FF5353"/>
</svg>
