<svg width="37" height="37" viewBox="0 0 37 37" fill="none" xmlns="http://www.w3.org/2000/svg">
    <rect width="37" height="37" rx="8" fill="url(#paint0_linear)" fill-opacity="0.47"/>
    <path d="M27 28L25.0348 26.2947L23.927 25.2811L22.7558 24.2105L23.237 25.8769H12.8738C11.836 25.8733 10.9974 25.0427 11 24.0211V11.854C10.9984 10.8331 11.8367 10.0037 12.8738 10H25.1262C26.1633 10.0037 27.0016 10.8331 27 11.854V28ZM22.6451 19.9549C22.2393 20.4907 21.6551 20.869 20.9946 21.0236C21.266 21.3646 21.5932 21.7502 21.5961 21.754C22.7001 21.777 23.7454 21.2658 24.3938 20.386C24.3606 18.562 23.9106 16.7689 23.0772 15.1395C22.3435 14.5727 21.4504 14.242 20.5192 14.1921H20.5086L20.3806 14.3361C21.2124 14.556 21.9881 14.9453 22.6576 15.4786C21.8057 15.0176 20.8709 14.7242 19.9051 14.6146C19.2914 14.5475 18.6716 14.5536 18.0593 14.6326C18.016 14.6335 17.9728 14.6379 17.9303 14.6459H17.9033C17.1857 14.7272 16.4855 14.919 15.8284 15.2143C15.4993 15.3631 15.2972 15.4711 15.2885 15.4748C15.2798 15.4786 15.2885 15.4748 15.2885 15.4682C15.9986 14.9184 16.8179 14.5211 17.6935 14.302L17.5973 14.194H17.5915C16.6603 14.244 15.7672 14.5747 15.0335 15.1414C14.197 16.7696 13.7469 18.5635 13.7169 20.3879C14.3572 21.2736 15.404 21.7866 16.5079 21.7559C16.5079 21.7559 16.8524 21.3428 17.1209 21.0084C16.4771 20.8491 15.9097 20.4739 15.5166 19.9474C15.5233 19.9521 15.6186 20.0156 15.7726 20.0989C15.7829 20.1109 15.7957 20.1206 15.8101 20.1274C15.8223 20.1357 15.8352 20.143 15.8486 20.1492C15.8638 20.156 15.8783 20.1642 15.8919 20.1738C16.1066 20.2903 16.3295 20.3916 16.5589 20.4769C16.9949 20.6469 17.4459 20.7769 17.9062 20.8654C18.3092 20.9402 18.7184 20.9782 19.1285 20.9791C19.513 20.979 19.8967 20.9441 20.2747 20.8748C20.73 20.7961 21.1746 20.6665 21.5999 20.4883C21.9673 20.3492 22.3179 20.1703 22.6451 19.9549ZM20.6837 19.5504C20.265 19.5864 19.8668 19.3656 19.681 18.9945C19.4952 18.6234 19.5599 18.1781 19.8439 17.8731C20.1279 17.5681 20.5729 17.4659 20.9646 17.6159C21.3564 17.7659 21.6144 18.1372 21.6144 18.5509C21.6356 19.0795 21.2195 19.5258 20.6828 19.5504H20.6837ZM17.3461 19.5504C16.8195 19.5052 16.4154 19.0713 16.4154 18.5509C16.4154 18.0306 16.8195 17.5967 17.3461 17.5515C17.5887 17.5522 17.8206 17.6496 17.989 17.8215C18.1801 18.0167 18.284 18.279 18.2777 18.55C18.3 19.0795 17.8829 19.5269 17.3451 19.5504H17.3461Z" fill="#1376EA"/>
    <defs>
        <linearGradient id="paint0_linear" x1="17.5" y1="-13" x2="18.5" y2="37" gradientUnits="userSpaceOnUse">
            <stop stop-color="#0765DD" stop-opacity="0.67"/>
            <stop offset="1" stop-color="#0765DD" stop-opacity="0.13"/>
        </linearGradient>
    </defs>
</svg>
