<svg width="14" height="25" viewBox="0 0 14 25" fill="none" xmlns="http://www.w3.org/2000/svg">
    <path d="M5.24609 0.938477H7.83594V3.66797C8.59766 3.78646 9.32552 4.0319 10.0195 4.4043C10.7135 4.76823 11.2171 5.10254 11.5303 5.40723L12 5.87695L10.1846 7.70508C10.1507 7.67122 10.0999 7.61621 10.0322 7.54004C9.97298 7.4554 9.8291 7.32845 9.60059 7.15918C9.38053 6.98145 9.13932 6.82487 8.87695 6.68945C8.62305 6.54557 8.28451 6.41862 7.86133 6.30859C7.44661 6.19857 7.00651 6.14355 6.54102 6.14355C5.60156 6.14355 4.84408 6.3763 4.26855 6.8418C3.7015 7.30729 3.41797 7.85319 3.41797 8.47949C3.41797 9.03809 3.5957 9.50781 3.95117 9.88867C4.30664 10.2695 4.76367 10.57 5.32227 10.79C5.88932 11.0016 6.51562 11.1963 7.20117 11.374C7.88672 11.5433 8.57227 11.7549 9.25781 12.0088C9.94336 12.2542 10.5654 12.5547 11.124 12.9102C11.6911 13.2656 12.1523 13.7734 12.5078 14.4336C12.8633 15.0938 13.041 15.8809 13.041 16.7949C13.041 17.472 12.9437 18.0898 12.749 18.6484C12.5628 19.1986 12.3174 19.6514 12.0127 20.0068C11.708 20.3623 11.3695 20.6797 10.9971 20.959C10.6247 21.2383 10.2523 21.4499 9.87988 21.5938C9.50749 21.7292 9.16895 21.8434 8.86426 21.9365C8.55957 22.0296 8.31413 22.0846 8.12793 22.1016L7.83594 22.127V24.8564H5.24609V22.127C4.61979 22.0592 4.01042 21.9196 3.41797 21.708C2.83398 21.488 2.3431 21.251 1.94531 20.9971C1.55599 20.7432 1.20898 20.4977 0.904297 20.2607C0.608073 20.0153 0.388021 19.8164 0.244141 19.6641L0.0410156 19.3975L1.85645 17.582C1.8903 17.6328 1.94531 17.709 2.02148 17.8105C2.10612 17.9036 2.28809 18.0729 2.56738 18.3184C2.85514 18.5553 3.16406 18.7669 3.49414 18.9531C3.82422 19.1309 4.26009 19.2959 4.80176 19.4482C5.35189 19.5921 5.93164 19.6641 6.54102 19.6641C7.66667 19.6641 8.55534 19.3932 9.20703 18.8516C9.85872 18.3014 10.1846 17.6159 10.1846 16.7949C10.1846 16.2363 10.0068 15.7708 9.65137 15.3984C9.2959 15.0176 8.83464 14.7214 8.26758 14.5098C7.70898 14.2897 7.08691 14.0951 6.40137 13.9258C5.71582 13.748 5.03027 13.5322 4.34473 13.2783C3.65918 13.0244 3.03288 12.7197 2.46582 12.3643C1.90723 12.0088 1.4502 11.5052 1.09473 10.8535C0.739258 10.1934 0.561523 9.40202 0.561523 8.47949C0.561523 7.68392 0.722331 6.97298 1.04395 6.34668C1.36556 5.72038 1.75488 5.25065 2.21191 4.9375C2.66895 4.61589 3.12598 4.34928 3.58301 4.1377C4.0485 3.92611 4.44629 3.79492 4.77637 3.74414L5.24609 3.66797V0.938477Z" fill="#C0C8D1"/>
</svg>
