<svg width="34" height="34" viewBox="0 0 34 34" fill="none" xmlns="http://www.w3.org/2000/svg">
    <rect width="34" height="34" rx="4" fill="#A4C1E0" fill-opacity="0.08"/>
    <path d="M10.7162 24C10.5161 23.9997 10.3253 23.9153 10.1904 23.7674C10.0531 23.6207 9.98484 23.4224 10.0028 23.2223L10.1776 21.3L18.2511 13.2271L20.7742 15.7502L12.7028 23.8223L10.7811 23.9971C10.759 23.9993 10.7369 24 10.7162 24ZM21.2778 15.2457L18.7555 12.7227L20.2684 11.2093C20.4022 11.0753 20.5838 11 20.7731 11C20.9624 11 21.144 11.0753 21.2778 11.2093L22.7908 12.7227C22.9247 12.8565 23 13.0381 23 13.2275C23 13.4169 22.9247 13.5985 22.7908 13.7323L21.2785 15.245L21.2778 15.2457Z" fill="#2A356B"/>
</svg>
