<svg width="42" height="42" viewBox="0 0 42 42" fill="none" xmlns="http://www.w3.org/2000/svg">
    <rect width="42" height="42" rx="8" fill="#A4C1E0" fill-opacity="0.19"/>
    <path d="M27.2745 29L24.4219 26.079C23.1912 26.6528 21.8522 26.942 20.5 26.9259C19.1059 26.9437 17.7262 26.6356 16.4659 26.0251C15.489 25.537 14.6117 24.863 13.8811 24.0389C13.1054 23.1875 12.4958 22.1923 12.085 21.1066L12 20.8333L12.0892 20.5583C12.7036 18.9536 13.7376 17.553 15.0779 16.5102L12.85 14.229L14.0511 13L28.4747 27.7693L27.2762 29H27.2745ZM16.2806 17.7426C15.1942 18.5224 14.3364 19.5911 13.7995 20.8333C14.9507 23.5531 17.6065 25.278 20.5 25.1852C21.3924 25.1927 22.2795 25.0455 23.124 24.75L21.594 23.1833C21.2534 23.3543 20.8793 23.4436 20.5 23.4444C19.0953 23.4354 17.9588 22.2716 17.95 20.8333C17.9504 20.4441 18.0376 20.06 18.205 19.7105L16.2806 17.7426ZM27.1742 23.9754L25.991 22.7647C26.4888 22.1884 26.8968 21.537 27.2006 20.8333C26.0508 18.1122 23.394 16.3867 20.5 16.4815C20.2901 16.4815 20.0793 16.4893 19.8753 16.5041L18.375 14.9662C19.0734 14.8132 19.7858 14.7376 20.5 14.7407C21.8941 14.723 23.2738 15.0311 24.5341 15.6416C25.511 16.1296 26.3883 16.8037 27.119 17.6278C27.8942 18.4781 28.5038 19.4721 28.915 20.5565L29 20.8333L28.9108 21.1084C28.5128 22.1685 27.924 23.1428 27.1751 23.9806L27.1742 23.9754Z" fill="#2E3D49"/>
</svg>
