<svg width="37" height="37" viewBox="0 0 37 37" fill="none" xmlns="http://www.w3.org/2000/svg">
    <rect width="37" height="37" rx="8" fill="url(#paint0_linear)" fill-opacity="0.35"/>
    <path d="M25.125 26H12.875C12.3918 26 12 25.6146 12 25.1392V16.838C12.0136 16.627 12.1047 16.4281 12.2564 16.2784L18.3814 10.2525C18.5455 10.0908 18.7682 10 19.0004 10C19.2327 10 19.4554 10.0908 19.6195 10.2525L25.7445 16.2784C25.9088 16.4396 26.0008 16.6588 26 16.887V25.1392C26 25.6146 25.6082 26 25.125 26ZM19 12.0783L13.75 17.2434V24.2783H24.25V17.2434L19 12.0783ZM17.6875 23.0378L15.3197 20.7135L16.55 19.4928L17.6875 20.6051L21.45 16.9103L22.6855 18.1293L17.6875 23.037V23.0378Z" fill="#006EEF"/>
    <defs>
        <linearGradient id="paint0_linear" x1="18" y1="-22" x2="18.5" y2="37" gradientUnits="userSpaceOnUse">
            <stop stop-color="#006EEF" stop-opacity="0.35"/>
            <stop offset="1" stop-color="#006EEF" stop-opacity="0.1"/>
        </linearGradient>
    </defs>
</svg>
