<svg width="34" height="34" viewBox="0 0 34 34" fill="none" xmlns="http://www.w3.org/2000/svg">
    <rect width="34" height="34" rx="4" fill="#A4C1E0" fill-opacity="0.08"/>
    <path d="M17 22.9947C16.5485 22.6135 16.0382 22.2171 15.4985 21.7953H15.4915C13.591 20.316 11.4371 18.6422 10.4858 16.6366C10.1733 15.998 10.0076 15.3033 10 14.5989C9.99792 13.6324 10.4052 12.7059 11.1297 12.0287C11.8542 11.3516 12.8349 10.981 13.85 11.0007C14.6764 11.002 15.4851 11.2294 16.1796 11.6558C16.4848 11.8443 16.7609 12.0724 17 12.3334C17.2404 12.0734 17.5166 11.8455 17.8211 11.6558C18.5153 11.2293 19.3238 11.0019 20.15 11.0007C21.1651 10.981 22.1458 11.3516 22.8703 12.0287C23.5948 12.7059 24.0021 13.6324 24 14.5989C23.9928 15.3044 23.8272 16.0003 23.5142 16.6399C22.5629 18.6455 20.4097 20.3187 18.5092 21.7953L18.5022 21.8006C17.9618 22.2197 17.4522 22.6162 17.0007 23L17 22.9947ZM13.85 12.3334C13.198 12.3256 12.5691 12.5632 12.1 12.9944C11.6481 13.417 11.3955 13.9959 11.4 14.5989C11.4079 15.1123 11.5301 15.6183 11.7584 16.0835C12.2075 16.9489 12.8134 17.732 13.5483 18.397C14.242 19.0633 15.04 19.7083 15.7302 20.2507C15.9213 20.4007 16.1159 20.5519 16.3105 20.7032L16.433 20.7985C16.6199 20.9437 16.8131 21.0943 17 21.2422L17.0091 21.2342L17.0133 21.2309H17.0175L17.0238 21.2262H17.0273H17.0308L17.0434 21.2162L17.0721 21.1943L17.077 21.1903L17.0847 21.1849H17.0889L17.0952 21.1796L17.56 20.8164L17.6818 20.7212C17.8785 20.5686 18.0731 20.4173 18.2642 20.2674C18.9544 19.725 19.7531 19.0807 20.4468 18.411C21.1818 17.7464 21.7878 16.9634 22.2367 16.0982C22.4691 15.6289 22.593 15.1177 22.6 14.5989C22.6029 13.9978 22.3505 13.4211 21.9 12.9997C21.4318 12.5666 20.8028 12.3271 20.15 12.3334C19.3533 12.327 18.5918 12.6448 18.057 13.207L17 14.3664L15.943 13.207C15.4082 12.6448 14.6467 12.327 13.85 12.3334Z" fill="#2A356B"/>
</svg>
