<svg width="34" height="34" viewBox="0 0 34 34" fill="none" xmlns="http://www.w3.org/2000/svg">
    <rect width="34" height="34" rx="4" fill="#A4C1E0" fill-opacity="0.08"/>
    <path d="M21 21H18.6V19.4H21C22.3255 19.4 23.4 18.3255 23.4 17C23.4 15.6745 22.3255 14.6 21 14.6H18.6V13H21C23.2091 13 25 14.7909 25 17C25 19.2091 23.2091 21 21 21ZM15.4 21H13C10.7909 21 9 19.2091 9 17C9 14.7909 10.7909 13 13 13H15.4V14.6H13C11.6745 14.6 10.6 15.6745 10.6 17C10.6 18.3255 11.6745 19.4 13 19.4H15.4V21ZM21 17.8H13V16.2H21V17.8Z" fill="#2A356B"/>
</svg>
