<svg width="37" height="37" viewBox="0 0 37 37" fill="none" xmlns="http://www.w3.org/2000/svg">
    <rect width="37" height="37" rx="8" fill="#FFB1B1" fill-opacity="0.29"/>
    <path fill-rule="evenodd" clip-rule="evenodd" d="M19 12.3636C17.8402 12.3636 16.9 13.2794 16.9 14.4091C16.9 15.5388 17.8402 16.4545 19 16.4545C20.1598 16.4545 21.1 15.5388 21.1 14.4091C21.1 13.2794 20.1598 12.3636 19 12.3636ZM15.5 14.4091C15.5 12.5263 17.067 11 19 11C20.933 11 22.5 12.5263 22.5 14.4091C22.5 16.2919 20.933 17.8182 19 17.8182C17.067 17.8182 15.5 16.2919 15.5 14.4091ZM12 25.3182C12 21.5526 15.134 18.5 19 18.5C22.866 18.5 26 21.5526 26 25.3182C26 25.6947 25.6866 26 25.3 26C24.9134 26 24.6 25.6947 24.6 25.3182C24.6 22.3057 22.0928 19.8636 19 19.8636C15.9072 19.8636 13.4 22.3057 13.4 25.3182C13.4 25.6947 13.0866 26 12.7 26C12.3134 26 12 25.6947 12 25.3182ZM17.105 22.1088C17.3784 21.8425 17.8216 21.8425 18.095 22.1088L19 22.9903L19.905 22.1088C20.1784 21.8425 20.6216 21.8425 20.895 22.1088C21.1683 22.3751 21.1683 22.8068 20.895 23.073L19.9899 23.9545L20.895 24.8361C21.1683 25.1023 21.1683 25.534 20.895 25.8003C20.6216 26.0666 20.1784 26.0666 19.905 25.8003L19 24.9188L18.095 25.8003C17.8216 26.0666 17.3784 26.0666 17.105 25.8003C16.8317 25.534 16.8317 25.1023 17.105 24.8361L18.01 23.9545L17.105 23.073C16.8317 22.8068 16.8317 22.3751 17.105 22.1088Z" fill="white"/>
</svg>
