<svg width="37" height="37" viewBox="0 0 37 37" fill="none" xmlns="http://www.w3.org/2000/svg">
    <rect width="37" height="37" rx="8" fill="url(#paint0_linear)" fill-opacity="0.35"/>
    <path d="M19 28C17.6393 28.0038 16.2957 27.6959 15.0724 27.0999C14.6247 26.8822 14.1958 26.6278 13.79 26.3394L13.6667 26.2494C12.5505 25.4256 11.638 24.357 10.9991 23.1255C10.3382 21.851 9.99551 20.4356 10 19C10 14.0294 14.0295 10 19 10C23.9705 10 28 14.0294 28 19C28.0044 20.4349 27.662 21.8497 27.0018 23.1237C26.3638 24.3544 25.4526 25.4227 24.3378 26.2467C23.9173 26.5545 23.4711 26.8255 23.0041 27.0567L22.9321 27.0927C21.708 27.6919 20.3628 28.0022 19 28ZM19 23.4999C17.6513 23.4973 16.4149 24.2506 15.7987 25.4502C17.816 26.4494 20.184 26.4494 22.2013 25.4502V25.4457C21.5843 24.2474 20.3478 23.4958 19 23.4999ZM19 21.7C20.9495 21.7025 22.747 22.7531 23.7061 24.4503L23.7196 24.4386L23.7322 24.4278L23.7169 24.4413L23.7079 24.4485C25.9839 22.4821 26.7978 19.3081 25.7487 16.4891C24.6997 13.6701 22.0088 11.8003 19.0009 11.8003C15.993 11.8003 13.3022 13.6701 12.2531 16.4891C11.204 19.3081 12.0179 22.4821 14.2939 24.4485C15.2536 22.7521 17.0509 21.7023 19 21.7ZM19 20.8C17.0118 20.8 15.4 19.1882 15.4 17.2C15.4 15.2118 17.0118 13.6 19 13.6C20.9882 13.6 22.6 15.2118 22.6 17.2C22.6 18.1547 22.2207 19.0704 21.5456 19.7455C20.8704 20.4207 19.9548 20.8 19 20.8ZM19 15.4C18.0059 15.4 17.2 16.2059 17.2 17.2C17.2 18.1941 18.0059 19 19 19C19.9941 19 20.8 18.1941 20.8 17.2C20.8 16.2059 19.9941 15.4 19 15.4Z" fill="#006EEF"/>
    <defs>
        <linearGradient id="paint0_linear" x1="18" y1="-22" x2="18.5" y2="37" gradientUnits="userSpaceOnUse">
            <stop stop-color="#006EEF" stop-opacity="0.35"/>
            <stop offset="1" stop-color="#006EEF" stop-opacity="0.1"/>
        </linearGradient>
    </defs>
</svg>
