<svg width="23" height="23" viewBox="0 0 23 23" fill="none" xmlns="http://www.w3.org/2000/svg">
    <path fill-rule="evenodd" clip-rule="evenodd" d="M15.141 14.2251H16.1625L21.6583 19.7337C22.1885 20.2639 22.1885 21.1174 21.6583 21.6476L21.6454 21.6605C21.1152 22.1907 20.2617 22.1907 19.7315 21.6605L14.2229 16.1648V15.1432L13.8737 14.7811C12.0634 16.3329 9.59352 17.1346 6.9685 16.6949C3.37364 16.0872 0.502919 13.0871 0.0632594 9.46641C-0.596229 3.99654 3.99433 -0.606955 9.46421 0.0654647C13.0849 0.505124 16.085 3.37584 16.6927 6.9707C17.1324 9.59573 16.3307 12.0656 14.7789 13.8759L15.141 14.2251ZM2.58497 8.40588C2.58497 11.6257 5.18413 14.2249 8.40399 14.2249C11.6238 14.2249 14.223 11.6257 14.223 8.40588C14.223 5.18602 11.6238 2.58686 8.40399 2.58686C5.18413 2.58686 2.58497 5.18602 2.58497 8.40588Z" fill="#4F567A"/>
</svg>
