<svg width="2391" height="1075" viewBox="0 0 2391 1075" fill="none" xmlns="http://www.w3.org/2000/svg">
    <path d="M1456.5 420.5C1821 294 2402.5 14 2618.5 165.5L2220 870L1190 737L228.001 870H121.001C113.802 690.744 -78.1579 269.511 -176.173 87.3012C-206.715 61.3724 -226.113 35.3809 -231.5 11.5C-238.222 -18.3022 -214.308 16.408 -176.173 87.3012C-36.6172 205.777 335.612 322.947 667.001 231.5C1062 122.5 1012.88 574.461 1456.5 420.5Z" fill="url(#paint0_linear)"/>
    <path d="M1455 561C1762.5 363.5 2456.5 461 2672.5 612.5L2568.5 1075L1190.48 897.258L228.481 1030.26H-170.5C-180.5 781.258 -172.5 112.6 -148.5 219C-118.5 352 348.937 825.997 647 531.5C939.5 242.5 1059.89 814.767 1455 561Z" fill="url(#paint1_linear)"/>
    <defs>
        <linearGradient id="paint0_linear" x1="1257.5" y1="-669.5" x2="1303" y2="724" gradientUnits="userSpaceOnUse">
            <stop stop-color="#0765DD"/>
            <stop offset="1" stop-color="white" stop-opacity="0"/>
        </linearGradient>
        <linearGradient id="paint1_linear" x1="1257.98" y1="-509.242" x2="1303.48" y2="884.258" gradientUnits="userSpaceOnUse">
            <stop stop-color="#0765DD"/>
            <stop offset="1" stop-color="white" stop-opacity="0"/>
        </linearGradient>
    </defs>
</svg>
